<svg xmlns="http://www.w3.org/2000/svg" width="18.782" height="19.687" viewBox="0 0 18.782 19.687"><defs><style>.a{fill:#2e2e2e;}</style></defs><path class="a" d="M19.855,7.324a.381.381,0,0,0-.539,0L8.907,17.734a4.079,4.079,0,0,1-5.769-5.769L13.547,1.555a2.8,2.8,0,0,1,4.035.158,2.8,2.8,0,0,1,.158,4.035L7.961,15.526a1.4,1.4,0,0,1-1.984-1.984L12.6,6.918a.381.381,0,1,0-.539-.539L5.437,13A2.166,2.166,0,0,0,8.5,16.065l9.779-9.779a3.542,3.542,0,0,0-.158-5.113,3.541,3.541,0,0,0-5.113-.158L2.6,11.425a4.843,4.843,0,0,0,6.848,6.848L19.855,7.864A.381.381,0,0,0,19.855,7.324Z" transform="translate(-1.185 0.001)"/></svg>