<svg xmlns="http://www.w3.org/2000/svg" width="17" height="17" viewBox="0 0 17 17"><defs><style>.a{fill:#111;}</style></defs><path class="a" d="M37.517,34a3.517,3.517,0,1,0,3.517,3.517A3.521,3.521,0,0,0,37.517,34Zm0,6.448a2.931,2.931,0,1,1,2.931-2.931A2.934,2.934,0,0,1,37.517,40.448Z" transform="translate(-24.034 -24.034)"/><path class="a" d="M47.052,40.759H45.586V39.293a.293.293,0,0,0-.586,0v1.759a.293.293,0,0,0,.293.293h1.759a.293.293,0,0,0,0-.586Z" transform="translate(-31.81 -27.569)"/><path class="a" d="M12.862,21H7v8.5h5.862V24.224h5.276V21H12.862Zm2.638.586h2.052v2.052H15.5Zm-5.276,0h2.052v2.052H10.224Zm-2.638,0H9.638v2.052H7.586Zm0,2.638H9.638v2.052H7.586Zm2.052,4.69H7.586V26.862H9.638Zm2.638,0H10.224V26.862h2.052Zm0-2.638H10.224V24.224h2.052Zm2.638-2.638H12.862V21.586h2.052Z" transform="translate(-4.948 -14.845)"/><path class="a" d="M9.672,16.121H.586V4.69H14.655V8.5a.293.293,0,0,0,.586,0V1.466a.293.293,0,0,0-.293-.293H13.483V.293A.293.293,0,0,0,13.19,0H11.138a.293.293,0,0,0-.293.293v.879H4.4V.293A.293.293,0,0,0,4.1,0H2.052a.293.293,0,0,0-.293.293v.879H.293A.293.293,0,0,0,0,1.466V16.414a.293.293,0,0,0,.293.293H9.672a.293.293,0,0,0,0-.586ZM11.431.586H12.9V2.345H11.431V.586Zm-9.086,0H3.81V2.345H2.345V.586ZM.586,1.759H1.759v.879a.293.293,0,0,0,.293.293H4.1A.293.293,0,0,0,4.4,2.638V1.759h6.448v.879a.293.293,0,0,0,.293.293H13.19a.293.293,0,0,0,.293-.293V1.759h1.172V4.1H.586Z"/></svg>