<svg id="funds" xmlns="http://www.w3.org/2000/svg" width="79.238" height="70.957" viewBox="0 0 79.238 70.957">
  <path id="Path_13366" data-name="Path 13366" d="M60.577,52.924c0-.015,0-.03-.005-.044a1.765,1.765,0,0,0-.044-.216v0a1.787,1.787,0,0,0-.068-.2c-.008-.019-.016-.037-.024-.055q-.031-.07-.069-.139c-.011-.02-.022-.04-.033-.059s-.011-.022-.018-.032c-.027-.042-.056-.082-.085-.121l-.016-.022a1.744,1.744,0,0,0-.144-.163l-.03-.028a1.8,1.8,0,0,0-.138-.12l-.037-.028a1.815,1.815,0,0,0-.2-.13L33.258,36.555l15.207-9.576L73.958,41.47,63.221,48.231a1.793,1.793,0,1,0,1.91,3.034L78.4,42.909a1.793,1.793,0,0,0-.069-3.076L49.3,23.332a1.793,1.793,0,0,0-1.841.041L28.826,35.108l-.011.007L19.5,40.98l-.013.008L.84,52.731a1.793,1.793,0,0,0,.069,3.076l29.03,16.5a1.792,1.792,0,0,0,1.841-.041L45.051,63.91a1.793,1.793,0,0,0-1.91-3.034L30.778,68.661,5.284,54.169l15.207-9.576,27.19,15.455v20.47a1.793,1.793,0,0,0,2.748,1.517l9.325-5.872a1.793,1.793,0,0,0,.838-1.517V53.134c0-.011,0-.021,0-.031Q60.587,53.014,60.577,52.924Zm-9.31,24.347V59.006a1.792,1.792,0,0,0-.907-1.558L23.933,42.426l5.882-3.7L55.309,53.213l-2.232,1.405a1.793,1.793,0,1,0,1.91,3.034l2.018-1.271V73.657Z" transform="translate(-0.002 -23.098)" fill="#00c1d4"/>
  <path id="Path_13367" data-name="Path 13367" d="M362.083,155.417l-13.271,8.356a1.793,1.793,0,1,0,1.91,3.034l13.271-8.356a1.793,1.793,0,0,0-1.91-3.034Z" transform="translate(-285.593 -131.47)" fill="#00c1d4"/>
  <path id="Path_13368" data-name="Path 13368" d="M43.138,235.279l-12.363,7.785-28.1-15.971A1.793,1.793,0,1,0,.907,230.21l29.03,16.5a1.792,1.792,0,0,0,1.841-.041l13.271-8.357a1.793,1.793,0,0,0-1.91-3.034Z" transform="translate(0 -190.33)" fill="#00c1d4"/>
  <path id="Path_13369" data-name="Path 13369" d="M362.083,195.417l-13.271,8.356a1.793,1.793,0,1,0,1.91,3.034l13.271-8.356a1.793,1.793,0,1,0-1.91-3.034Z" transform="translate(-285.593 -164.299)" fill="#00c1d4"/>
  <path id="Path_13370" data-name="Path 13370" d="M43.138,275.279l-12.363,7.785-28.1-15.971A1.793,1.793,0,0,0,.907,270.21l29.03,16.5a1.792,1.792,0,0,0,1.841-.042l13.271-8.356a1.793,1.793,0,0,0-1.91-3.034Z" transform="translate(0 -223.16)" fill="#00c1d4"/>
  <path id="Path_13371" data-name="Path 13371" d="M362.083,235.418l-13.271,8.356a1.793,1.793,0,1,0,1.91,3.034l13.271-8.356a1.793,1.793,0,1,0-1.91-3.034Z" transform="translate(-285.593 -197.128)" fill="#00c1d4"/>
  <path id="Path_13372" data-name="Path 13372" d="M43.138,315.279l-12.363,7.785-28.1-15.971A1.793,1.793,0,1,0,.907,310.21l29.03,16.5a1.792,1.792,0,0,0,1.841-.041l13.271-8.357a1.793,1.793,0,0,0-1.91-3.034Z" transform="translate(0 -255.989)" fill="#00c1d4"/>
</svg>
