<svg xmlns="http://www.w3.org/2000/svg" width="29.109" height="33.12" viewBox="0 0 29.109 33.12">
  <g id="personal-information" transform="translate(-31)">
    <path id="Path_70256" data-name="Path 70256" d="M48.951,33.12h-16.5A1.457,1.457,0,0,1,31,31.665V7.387a1.457,1.457,0,0,1,1.455-1.455h2.789a.485.485,0,0,1,0,.97H32.455a.486.486,0,0,0-.485.485V31.665a.486.486,0,0,0,.485.485h16.5a.486.486,0,0,0,.485-.485V20.377H38.277a1.457,1.457,0,0,1-1.455-1.455V1.455A1.457,1.457,0,0,1,38.277,0H52.832a1.457,1.457,0,0,1,1.455,1.455V6.307a.485.485,0,1,1-.97,0V1.455A.486.486,0,0,0,52.832.97H38.277a.486.486,0,0,0-.485.485V18.921a.486.486,0,0,0,.485.485H52.832a.486.486,0,0,0,.485-.485V8.248a.485.485,0,0,1,.485-.485h2.911a.485.485,0,1,1,0,.97H54.288v1.941h2.426a.485.485,0,1,1,0,.97H54.288v1.941h2.426a.485.485,0,1,1,0,.97H54.288V16.5h2.426a.485.485,0,1,1,0,.97H54.288v1.455a1.45,1.45,0,0,1-.083.485h2.509a.485.485,0,1,1,0,.97H50.406v1.941h6.307a.485.485,0,1,1,0,.97H50.406v3.04h8.248a.486.486,0,0,0,.485-.485V4.476a.486.486,0,0,0-.485-.485H55.743a.485.485,0,1,1,0-.97h2.911a1.457,1.457,0,0,1,1.455,1.455V25.843A1.457,1.457,0,0,1,58.654,27.3H50.406v2.911h5.337a.486.486,0,0,0,.485-.485v-.97a.485.485,0,1,1,.97,0v.97a1.457,1.457,0,0,1-1.455,1.455H50.406v.485A1.457,1.457,0,0,1,48.951,33.12Zm2.911-14.684H39.248a.485.485,0,0,1-.485-.485V16.265c0-2.493,1.648-3.063,2.852-3.48.993-.344,1.557-.575,1.657-1.322A4.057,4.057,0,0,1,41.5,8.11v-2a4.059,4.059,0,0,1,8.117,0v2a4.057,4.057,0,0,1-1.775,3.353c.1.747.663.979,1.657,1.322,1.2.417,2.852.987,2.852,3.48v1.685A.485.485,0,0,1,51.862,18.436Zm-12.129-.97H51.377v-1.2c0-1.8-1.019-2.155-2.2-2.563-.871-.3-1.922-.665-2.234-1.779a4.062,4.062,0,0,1-2.778,0C43.853,13.037,42.8,13.4,41.932,13.7c-1.18.408-2.2.761-2.2,2.563ZM45.555,3.021a3.092,3.092,0,0,0-3.088,3.088v2a3.088,3.088,0,0,0,6.177,0v-2a3.092,3.092,0,0,0-3.088-3.088Z" fill="#2e5bff"/>
  </g>
</svg>
