<svg xmlns="http://www.w3.org/2000/svg" width="30.188" height="34.5" viewBox="0 0 30.188 34.5">
  <path id="invoices" d="M43.3,11.787a7.547,7.547,0,1,0,7.547-7.547A7.555,7.555,0,0,0,43.3,11.787Zm13.944,0a6.4,6.4,0,1,1-6.4-6.4A6.4,6.4,0,0,1,57.241,11.787Zm-6.4-3.881a.575.575,0,0,1,.575.575v.243a1.728,1.728,0,0,1,1.15,1.626.575.575,0,0,1-1.15,0,.575.575,0,1,0-1.15,0v.233a.573.573,0,0,0,.4.549l.686.214a1.718,1.718,0,0,1,1.211,1.647v.233A1.728,1.728,0,0,1,51.2,14.912v.182a.575.575,0,1,1-1.15,0v-.336a1.726,1.726,0,0,1-.934-1.532.575.575,0,1,1,1.15,0,.575.575,0,0,0,1.15,0v-.233a.573.573,0,0,0-.4-.549l-.686-.214a1.718,1.718,0,0,1-1.211-1.647V10.35a1.728,1.728,0,0,1,1.15-1.626V8.481A.575.575,0,0,1,50.844,7.906Zm9.344,15.238v7.331A4.03,4.03,0,0,1,56.163,34.5H34.025A4.03,4.03,0,0,1,30,30.475V2.3A2.3,2.3,0,0,1,32.3,0H50.988a2.3,2.3,0,0,1,2.3,2.3.575.575,0,0,1-1.15,0,1.151,1.151,0,0,0-1.15-1.15H32.3A1.151,1.151,0,0,0,31.15,2.3V30.475a2.878,2.878,0,0,0,2.875,2.875H53.349a4.012,4.012,0,0,1-1.212-2.875V21.491a.575.575,0,0,1,1.15,0v8.984a2.875,2.875,0,0,0,5.75,0V23.144a1.151,1.151,0,0,0-1.15-1.15H55.444a.575.575,0,0,1,0-1.15h2.444A2.3,2.3,0,0,1,60.188,23.144ZM35.031,15.453a.575.575,0,0,1,.575-.575h4.888a.575.575,0,1,1,0,1.15H35.606A.575.575,0,0,1,35.031,15.453Zm0-6.469a.575.575,0,0,1,.575-.575h4.888a.575.575,0,1,1,0,1.15H35.606A.575.575,0,0,1,35.031,8.984ZM48.256,21.922a.575.575,0,0,1-.575.575H35.606a.575.575,0,1,1,0-1.15H47.681A.575.575,0,0,1,48.256,21.922Zm0,6.038a.575.575,0,0,1-.575.575H35.606a.575.575,0,1,1,0-1.15H47.681A.575.575,0,0,1,48.256,27.959Z" transform="translate(-30)" fill="#ffa480"/>
</svg>
