<svg xmlns="http://www.w3.org/2000/svg" width="44.496" height="53.88" viewBox="0 0 44.496 53.88">
  <g id="light-bulb" transform="translate(-39.7)">
    <path id="Path_13400" data-name="Path 13400" d="M135.8,92.111a13.828,13.828,0,1,0-22.032.022A22.893,22.893,0,0,1,118.48,105.9v5.347a4.306,4.306,0,0,0,4.3,4.3h4a4.307,4.307,0,0,0,4.3-4.3V105.9A22.679,22.679,0,0,1,135.8,92.111Zm-20.621-1.052a11.939,11.939,0,0,1-2.457-7.407A12.123,12.123,0,0,1,124.6,71.711a12.055,12.055,0,0,1,9.787,19.329,24.475,24.475,0,0,0-5.089,14.529h-9.046A24.7,24.7,0,0,0,115.176,91.059Zm5.077,19.589v-.718l9.059,1.038v.281a2.532,2.532,0,0,1-.04.432Zm0-2.5v-.8h9.059v1.843Zm2.529,5.632a2.53,2.53,0,0,1-2.214-1.309l7.631.874a2.514,2.514,0,0,1-1.416.435h-4Z" transform="translate(-62.826 -61.671)" fill="#248b30"/>
    <path id="Path_13401" data-name="Path 13401" d="M139.817,180.972a9.072,9.072,0,0,1-.1-1.416.886.886,0,0,0-1.773-.016,10.848,10.848,0,0,0,.117,1.694.886.886,0,1,0,1.753-.262Z" transform="translate(-86.635 -157.546)" fill="#248b30"/>
    <path id="Path_13402" data-name="Path 13402" d="M153.052,228.386a.887.887,0,0,0,.842-1.163,28.122,28.122,0,0,0-4.352-8.273,8.955,8.955,0,0,1-.829-1.309.886.886,0,1,0-1.575.814,10.742,10.742,0,0,0,.994,1.569,26.354,26.354,0,0,1,4.078,7.752.887.887,0,0,0,.842.61Z" transform="translate(-94.653 -191.495)" fill="#248b30"/>
    <path id="Path_13403" data-name="Path 13403" d="M288.653,212.072a.886.886,0,0,0-1.165.463,8.867,8.867,0,0,1-1.08,1.849.886.886,0,1,0,1.413,1.071,10.651,10.651,0,0,0,1.3-2.219A.886.886,0,0,0,288.653,212.072Z" transform="translate(-217.391 -186.943)" fill="#248b30"/>
    <path id="Path_13404" data-name="Path 13404" d="M221.327,98.711a8.874,8.874,0,0,1,8.863,8.864c0,.278-.013.558-.038.832a.886.886,0,0,0,.8.964q.041,0,.082,0a.886.886,0,0,0,.882-.805c.03-.328.045-.662.045-.994a10.648,10.648,0,0,0-10.636-10.636.886.886,0,1,0,0,1.773Z" transform="translate(-159.379 -85.481)" fill="#248b30"/>
    <path id="Path_13405" data-name="Path 13405" d="M221.327,6.737a.886.886,0,0,0,.886-.886V.886a.886.886,0,1,0-1.773,0V5.85A.886.886,0,0,0,221.327,6.737Z" transform="translate(-159.379)" fill="#248b30"/>
    <path id="Path_13406" data-name="Path 13406" d="M132.669,29.836a.886.886,0,0,0,1.535-.886l-2.481-4.3a.886.886,0,1,0-1.535.886Z" transform="translate(-79.689 -21.348)" fill="#248b30"/>
    <path id="Path_13407" data-name="Path 13407" d="M346.236,252.718l-4.3-2.481a.886.886,0,1,0-.886,1.535l4.3,2.481a.886.886,0,0,0,.886-1.535Z" transform="translate(-265.345 -220.557)" fill="#248b30"/>
    <path id="Path_13408" data-name="Path 13408" d="M64.352,92.023l4.3,2.481a.886.886,0,0,0,.886-1.535l-4.3-2.481a.886.886,0,0,0-.886,1.535Z" transform="translate(-21.348 -79.688)" fill="#248b30"/>
    <path id="Path_13409" data-name="Path 13409" d="M365.03,180.74h-4.964a.886.886,0,0,0,0,1.773h4.964a.886.886,0,0,0,0-1.773Z" transform="translate(-281.721 -159.379)" fill="#248b30"/>
    <path id="Path_13410" data-name="Path 13410" d="M46.437,181.626a.886.886,0,0,0-.886-.886H40.586a.886.886,0,0,0,0,1.773H45.55A.886.886,0,0,0,46.437,181.626Z" transform="translate(0 -159.379)" fill="#248b30"/>
    <path id="Path_13411" data-name="Path 13411" d="M341.5,94.623a.882.882,0,0,0,.442-.119l4.3-2.481a.886.886,0,0,0-.886-1.535l-4.3,2.481a.887.887,0,0,0,.444,1.654Z" transform="translate(-265.345 -79.689)" fill="#248b30"/>
    <path id="Path_13412" data-name="Path 13412" d="M68.65,250.238l-4.3,2.481a.886.886,0,1,0,.886,1.535l4.3-2.481a.886.886,0,1,0-.886-1.535Z" transform="translate(-21.348 -220.558)" fill="#248b30"/>
    <path id="Path_13413" data-name="Path 13413" d="M290.263,30.161a.886.886,0,0,0,1.211-.325l2.481-4.3a.886.886,0,1,0-1.535-.886l-2.481,4.3A.886.886,0,0,0,290.263,30.161Z" transform="translate(-220.558 -21.348)" fill="#248b30"/>
  </g>
</svg>
