<svg id="receipt" xmlns="http://www.w3.org/2000/svg" width="35" height="35" viewBox="0 0 35 35">
  <g id="Group_983" data-name="Group 983">
    <g id="Group_982" data-name="Group 982">
      <path id="Path_1383" data-name="Path 1383" d="M12.833,0A4.672,4.672,0,0,0,8.167,4.667v21H.583A.583.583,0,0,0,0,26.25v4.083A4.672,4.672,0,0,0,4.667,35h22.75v-.036A4.674,4.674,0,0,0,31.5,30.333V4.667a3.5,3.5,0,0,1,3.5-3.5V0ZM4.667,33.833a3.5,3.5,0,0,1-3.5-3.5v-3.5h21v3.5a4.657,4.657,0,0,0,1.583,3.5ZM30.333,4.667V30.333a3.5,3.5,0,1,1-7,0V26.25a.583.583,0,0,0-.583-.583H9.333v-21a3.5,3.5,0,0,1,3.5-3.5h19.09A4.652,4.652,0,0,0,30.333,4.667Z" fill="#fcc42f"/>
    </g>
  </g>
  <g id="Group_985" data-name="Group 985" transform="translate(14.048 2.348)">
    <g id="Group_984" data-name="Group 984" transform="translate(0 0)">
      <rect id="Rectangle_1696" data-name="Rectangle 1696" width="11" height="1" transform="translate(0.452 0.152)" fill="#fcc42f"/>
    </g>
  </g>
  <g id="Group_987" data-name="Group 987" transform="translate(10.499 4.649)">
    <g id="Group_986" data-name="Group 986" transform="translate(0 0)">
      <rect id="Rectangle_1697" data-name="Rectangle 1697" width="19" height="1" transform="translate(0.001 -0.149)" fill="#fcc42f"/>
    </g>
  </g>
  <g id="Group_989" data-name="Group 989" transform="translate(11.65 8.198)">
    <g id="Group_988" data-name="Group 988" transform="translate(0 0)">
      <rect id="Rectangle_1698" data-name="Rectangle 1698" width="6" height="1" transform="translate(-0.15 0.302)" fill="#fcc42f"/>
    </g>
  </g>
  <g id="Group_991" data-name="Group 991" transform="translate(11.65 10.499)">
    <g id="Group_990" data-name="Group 990" transform="translate(0 0)">
      <rect id="Rectangle_1699" data-name="Rectangle 1699" width="5" height="1" transform="translate(-0.15 0.001)" fill="#fcc42f"/>
    </g>
  </g>
  <g id="Group_993" data-name="Group 993" transform="translate(11.65 12.801)">
    <g id="Group_992" data-name="Group 992" transform="translate(0 0)">
      <rect id="Rectangle_1700" data-name="Rectangle 1700" width="7" height="2" transform="translate(-0.15 -0.301)" fill="#fcc42f"/>
    </g>
  </g>
  <g id="Group_995" data-name="Group 995" transform="translate(11.65 15.198)">
    <g id="Group_994" data-name="Group 994" transform="translate(0 0)">
      <rect id="Rectangle_1701" data-name="Rectangle 1701" width="4" height="1" transform="translate(-0.15 0.302)" fill="#fcc42f"/>
    </g>
  </g>
  <g id="Group_997" data-name="Group 997" transform="translate(11.65 17.5)">
    <g id="Group_996" data-name="Group 996" transform="translate(0)">
      <rect id="Rectangle_1702" data-name="Rectangle 1702" width="6" height="1" transform="translate(-0.15)" fill="#fcc42f"/>
    </g>
  </g>
  <g id="Group_999" data-name="Group 999" transform="translate(25.652 8.198)">
    <g id="Group_998" data-name="Group 998" transform="translate(0 0)">
      <rect id="Rectangle_1703" data-name="Rectangle 1703" width="2" height="1" transform="translate(-0.152 0.302)" fill="#fcc42f"/>
    </g>
  </g>
  <g id="Group_1001" data-name="Group 1001" transform="translate(25.652 10.499)">
    <g id="Group_1000" data-name="Group 1000" transform="translate(0 0)">
      <rect id="Rectangle_1704" data-name="Rectangle 1704" width="2" height="1" transform="translate(-0.152 0.001)" fill="#fcc42f"/>
    </g>
  </g>
  <g id="Group_1003" data-name="Group 1003" transform="translate(25.652 12.801)">
    <g id="Group_1002" data-name="Group 1002" transform="translate(0 0)">
      <rect id="Rectangle_1705" data-name="Rectangle 1705" width="2" height="2" transform="translate(-0.152 -0.301)" fill="#fcc42f"/>
    </g>
  </g>
  <g id="Group_1005" data-name="Group 1005" transform="translate(25.652 15.198)">
    <g id="Group_1004" data-name="Group 1004" transform="translate(0 0)">
      <rect id="Rectangle_1706" data-name="Rectangle 1706" width="2" height="1" transform="translate(-0.152 0.302)" fill="#fcc42f"/>
    </g>
  </g>
  <g id="Group_1007" data-name="Group 1007" transform="translate(25.652 17.5)">
    <g id="Group_1006" data-name="Group 1006" transform="translate(0)">
      <rect id="Rectangle_1707" data-name="Rectangle 1707" width="2" height="1" transform="translate(-0.152)" fill="#fcc42f"/>
    </g>
  </g>
  <g id="Group_1011" data-name="Group 1011" transform="translate(11.65 23.35)">
    <g id="Group_1010" data-name="Group 1010" transform="translate(0 0)">
      <rect id="Rectangle_1708" data-name="Rectangle 1708" width="9" height="1" transform="translate(-0.15 0.15)" fill="#fcc42f"/>
    </g>
  </g>
  <g id="Group_1013" data-name="Group 1013" transform="translate(11.65 20.952)">
    <g id="Group_1012" data-name="Group 1012" transform="translate(0 0)">
      <rect id="Rectangle_1709" data-name="Rectangle 1709" width="9" height="2" transform="translate(-0.15 -0.452)" fill="#fcc42f"/>
    </g>
  </g>
</svg>
