<svg xmlns="http://www.w3.org/2000/svg" width="48.118" height="43.603" viewBox="0 0 48.118 43.603">
  <g id="domain" transform="translate(0 -0.5)">
    <path id="Path_13419" data-name="Path 13419" d="M46.371,18.4h-.859A21.8,21.8,0,0,0,8.643,6.886,21.641,21.641,0,0,0,2.589,18.491H1.747A1.749,1.749,0,0,0,0,20.239v6.35a1.75,1.75,0,0,0,1.747,1.747H3.111A21.8,21.8,0,0,0,9.86,38.845a.706.706,0,0,0,.92-1.07,20.433,20.433,0,0,1-2.326-2.351,27.063,27.063,0,0,1,3.291-1.137,23.393,23.393,0,0,0,1.775,2.685,27.514,27.514,0,0,0,4.79,4.894,20.221,20.221,0,0,1-4.138-1.728.706.706,0,0,0-.685,1.234,21.82,21.82,0,0,0,31.521-13h1.364a1.749,1.749,0,0,0,1.747-1.747V20.145A1.75,1.75,0,0,0,46.371,18.4Zm-2.3,0H39.167c-.059-.366-.124-.731-.2-1.1a24.863,24.863,0,0,0-1.955-5.781c.13-.036.261-.07.39-.107a26.9,26.9,0,0,0,3.165-1.087A20.168,20.168,0,0,1,44.075,18.4Zm-6.323.094H30.462c-.024-.354-.051-.708-.082-1.061-.14-1.579-.346-3.107-.612-4.568a45.678,45.678,0,0,0,5.85-.984,23.432,23.432,0,0,1,1.968,5.709C37.648,17.888,37.7,18.19,37.752,18.491Zm.725-10.608q.623.623,1.185,1.29a27.234,27.234,0,0,1-2.648.883c-.221.063-.443.124-.667.183a24.792,24.792,0,0,0-1.473-2.329A24.238,24.238,0,0,0,29.9,2.755,20.288,20.288,0,0,1,38.477,7.883ZM26.235,2.026a22.935,22.935,0,0,1,7.491,6.7q.645.9,1.2,1.86a44.614,44.614,0,0,1-5.431.882,29.026,29.026,0,0,0-3.6-9.48Q26.062,2.008,26.235,2.026Zm-2.176-.115h.051A25.328,25.328,0,0,1,28.079,11.6q-2.261.163-4.63.13c-1.071-.015-2.218-.049-3.411-.122a25.34,25.34,0,0,1,3.97-9.692Zm-1.829.082A29.05,29.05,0,0,0,18.62,11.5a40.482,40.482,0,0,1-5.471-.831q.572-1,1.243-1.938a22.943,22.943,0,0,1,7.491-6.7Q22.056,2.008,22.23,1.993Zm-3.885,10.9c-.263,1.452-.468,2.971-.606,4.539-.031.353-.058.707-.081,1.061H10.365c.05-.3.1-.6.167-.9a23.449,23.449,0,0,1,1.93-5.63A41.045,41.045,0,0,0,18.345,12.892Zm-8.7-5.009a20.288,20.288,0,0,1,8.581-5.128,24.22,24.22,0,0,0-4.978,5.155,24.674,24.674,0,0,0-1.513,2.4A27,27,0,0,1,8.452,9.178Q9.016,8.51,9.641,7.883ZM7.55,10.327a27.978,27.978,0,0,0,3.522,1.264A24.872,24.872,0,0,0,9.151,17.3q-.123.595-.215,1.191H4.025A20.167,20.167,0,0,1,7.55,10.327Zm-5.8,16.6a.337.337,0,0,1-.336-.337v-6.35a.337.337,0,0,1,.336-.336H22.115a.706.706,0,0,0,0-1.411H19.071c.022-.312.046-.624.073-.936.14-1.579.347-3.1.614-4.555,1.287.083,2.521.119,3.67.136q.417.006.833.006,2.088,0,4.1-.153c.268,1.455.476,2.983.616,4.566q.041.468.074.936H26.52a.706.706,0,0,0,0,1.411H37.465v7.023H1.747ZM37.3,28.336a22.454,22.454,0,0,1-1.682,4.387,45.7,45.7,0,0,0-5.839-.984c.2-1.1.369-2.24.5-3.4H37.3Zm-8.441,0c-.127,1.121-.291,2.216-.49,3.278q-2.41-.183-4.935-.148c-1.152.017-2.388.053-3.677.136-.2-1.058-.361-2.149-.488-3.266Zm-21.3,5.937a20.372,20.372,0,0,1-2.972-5.937H9.367a23.917,23.917,0,0,0,1.7,4.676A27.938,27.938,0,0,0,7.554,34.274Zm3.27-5.937h7.021c.127,1.153.293,2.281.493,3.375a41.044,41.044,0,0,0-5.873.933A22.456,22.456,0,0,1,10.824,28.336ZM21.876,42.572a24.4,24.4,0,0,1-7.237-6.457,21.91,21.91,0,0,1-1.471-2.185,40.532,40.532,0,0,1,5.448-.826,36.326,36.326,0,0,0,.991,3.662,27.593,27.593,0,0,0,2.633,5.843C22.119,42.6,22,42.585,21.876,42.572Zm2.183.12h-.051a22.727,22.727,0,0,1-3.061-6.369C20.6,35.273,20.3,34.16,20.038,33c1.193-.072,2.34-.106,3.411-.122q2.367-.034,4.629.131c-.259,1.158-.561,2.268-.907,3.314a22.717,22.717,0,0,1-3.061,6.369Zm1.818-.081a27.551,27.551,0,0,0,2.634-5.846,36.084,36.084,0,0,0,.985-3.634,44.609,44.609,0,0,1,5.408.877,21.888,21.888,0,0,1-1.425,2.107,24.4,24.4,0,0,1-7.244,6.462Q26.056,42.595,25.877,42.611Zm12.6-5.891A20.283,20.283,0,0,1,29.8,41.876a27.507,27.507,0,0,0,4.8-4.9,23.31,23.31,0,0,0,1.733-2.613q.343.091.682.187a27.336,27.336,0,0,1,2.646.882C39.285,35.872,38.893,36.3,38.477,36.719Zm2.088-2.444A26.923,26.923,0,0,0,37.4,33.19c-.129-.037-.26-.072-.39-.107a23.909,23.909,0,0,0,1.731-4.714h4.789A20.165,20.165,0,0,1,40.565,34.276Zm6.142-7.687a.337.337,0,0,1-.336.336h-7.5V19.9h7.5a.337.337,0,0,1,.336.337Zm0,0" fill="#1c5e5e"/>
    <path id="Path_13420" data-name="Path 13420" d="M50.329,223.1c0,.1-.157.214-.339.214-.2,0-.334-.109-.334-.214v-3.5c0-.125.136-.209.334-.209.182,0,.339.084.339.209v1.6a.715.715,0,0,1,.657-.4,1,1,0,0,1,.9,1.058V223.1c0,.141-.172.214-.339.214s-.334-.073-.334-.214v-1.235a.482.482,0,0,0-.453-.469.443.443,0,0,0-.428.469V223.1Zm0,0" transform="translate(-44.99 -198.319)" fill="#1c5e5e"/>
    <path id="Path_13421" data-name="Path 13421" d="M82.621,225.737c0,.2.073.276.292.276h.2a.284.284,0,1,1,0,.568h-.2c-.626,0-.964-.255-.964-.845v-2.528c0-.125.177-.209.334-.209.172,0,.339.083.339.209v.9h.615c.109,0,.172.125.172.245s-.062.245-.172.245h-.615v1.142Zm0,0" transform="translate(-74.248 -201.589)" fill="#1c5e5e"/>
    <path id="Path_13422" data-name="Path 13422" d="M105.2,225.737c0,.2.073.276.292.276h.2a.284.284,0,1,1,0,.568h-.2c-.626,0-.964-.255-.964-.845v-2.528c0-.125.177-.209.334-.209.172,0,.339.083.339.209v.9h.615c.109,0,.172.125.172.245s-.062.245-.172.245H105.2Zm0,0" transform="translate(-94.704 -201.589)" fill="#1c5e5e"/>
    <path id="Path_13423" data-name="Path 13423" d="M127.849,234.666v.156a.82.82,0,0,1,.7-.4,1,1,0,0,1,.933,1.058v.427a1.035,1.035,0,0,1-.912,1.069.774.774,0,0,1-.683-.412v1.3c0,.109-.156.214-.344.214s-.328-.1-.328-.214v-3.206c0-.125.141-.209.318-.209S127.849,234.54,127.849,234.666Zm.964.819a.489.489,0,0,0-.474-.469.456.456,0,0,0-.448.469v.521a.507.507,0,0,0,.459.386.5.5,0,0,0,.464-.48Zm0,0" transform="translate(-115.263 -211.941)" fill="#1c5e5e"/>
    <path id="Path_13424" data-name="Path 13424" d="M159.1,236.245c0-.459-1.236-.172-1.236-1.043,0-.37.235-.777.933-.777.423,0,.829.146.829.339,0,.094-.088.323-.245.323-.125,0-.287-.151-.573-.151-.261,0-.365.13-.365.235,0,.381,1.251.12,1.251,1.048,0,.464-.344.761-.959.761-.532,0-.943-.219-.943-.449,0-.109.094-.3.224-.3.151,0,.266.235.7.235C159.024,236.469,159.1,236.349,159.1,236.245Zm0,0" transform="translate(-142.96 -211.941)" fill="#1c5e5e"/>
    <path id="Path_13425" data-name="Path 13425" d="M185.954,238.054a.361.361,0,0,1-.349.354.354.354,0,1,1,.349-.354Zm0,1.522a.361.361,0,0,1-.349.355.354.354,0,1,1,.349-.355Zm0,0" transform="translate(-167.84 -214.907)" fill="#1c5e5e"/>
    <path id="Path_13426" data-name="Path 13426" d="M201.8,218.574a.2.2,0,0,1-.021.094l-1.872,3.785a.227.227,0,0,1-.2.115.243.243,0,0,1-.25-.229.178.178,0,0,1,.026-.089l1.872-3.8a.2.2,0,0,1,.188-.109A.253.253,0,0,1,201.8,218.574Zm0,0" transform="translate(-180.705 -197.367)" fill="#1c5e5e"/>
    <path id="Path_13427" data-name="Path 13427" d="M218.553,218.574a.207.207,0,0,1-.021.094l-1.872,3.785a.226.226,0,0,1-.2.115.243.243,0,0,1-.25-.229.174.174,0,0,1,.026-.089l1.872-3.8a.2.2,0,0,1,.188-.109A.253.253,0,0,1,218.553,218.574Zm0,0" transform="translate(-195.888 -197.367)" fill="#1c5e5e"/>
    <path id="Path_13428" data-name="Path 13428" d="M247.052,236.92c-.037.089-.151.12-.266.12-.13,0-.245-.042-.276-.12l-.4-1.137-.4,1.131c-.031.083-.156.125-.287.125a.26.26,0,0,1-.261-.125l-.8-2.059a.214.214,0,0,1-.026-.1c0-.162.261-.276.438-.276a.191.191,0,0,1,.193.109l.521,1.481.391-1.288c.037-.12.125-.135.229-.135s.193.016.229.135l.386,1.293.526-1.486a.194.194,0,0,1,.193-.109c.167,0,.433.115.433.282a.191.191,0,0,1-.021.094Zm0,0" transform="translate(-221.373 -211.991)" fill="#1c5e5e"/>
    <path id="Path_13429" data-name="Path 13429" d="M288.826,236.92c-.036.089-.151.12-.266.12-.13,0-.245-.042-.276-.12l-.4-1.137-.4,1.131c-.031.083-.156.125-.287.125a.261.261,0,0,1-.261-.125l-.8-2.059a.214.214,0,0,1-.026-.1c0-.162.261-.276.438-.276a.191.191,0,0,1,.193.109l.521,1.481.391-1.288c.036-.12.125-.135.229-.135s.193.016.229.135l.386,1.293.527-1.486a.193.193,0,0,1,.193-.109c.167,0,.433.115.433.282a.191.191,0,0,1-.021.094Zm0,0" transform="translate(-259.221 -211.991)" fill="#1c5e5e"/>
    <path id="Path_13430" data-name="Path 13430" d="M330.6,236.92c-.036.089-.151.12-.266.12-.13,0-.245-.042-.276-.12l-.4-1.137-.4,1.131c-.031.083-.156.125-.287.125a.261.261,0,0,1-.261-.125l-.8-2.059a.214.214,0,0,1-.026-.1c0-.162.261-.276.438-.276a.192.192,0,0,1,.193.109l.521,1.481.391-1.288c.036-.12.125-.135.229-.135s.193.016.229.135l.386,1.293.527-1.486a.193.193,0,0,1,.193-.109c.167,0,.433.115.433.282a.191.191,0,0,1-.021.094Zm0,0" transform="translate(-297.072 -211.991)" fill="#1c5e5e"/>
    <path id="Path_13431" data-name="Path 13431" d="M428.855,214.9l-.761-.111-.34-.69a1.059,1.059,0,0,0-1.9,0l-.34.69-.761.111a1.059,1.059,0,0,0-.587,1.806l.551.537-.13.758a1.059,1.059,0,0,0,1.536,1.116l.681-.358.681.358A1.059,1.059,0,0,0,429.021,218l-.13-.758.551-.537a1.059,1.059,0,0,0-.587-1.806Zm-1.082,1.461a1.06,1.06,0,0,0-.3.937l.041.237-.213-.112a1.058,1.058,0,0,0-.985,0l-.213.112.04-.237a1.058,1.058,0,0,0-.3-.937l-.172-.168.238-.035a1.059,1.059,0,0,0,.8-.579l.106-.216.107.216a1.058,1.058,0,0,0,.8.579l.237.035Zm0,0" transform="translate(-384.013 -192.989)" fill="#1c5e5e"/>
  </g>
</svg>
