<svg xmlns="http://www.w3.org/2000/svg" width="48" height="48" viewBox="0 0 48 48"><defs><style>.a{fill:#213dfc;}.b,.c{fill:#fff;}.b{stroke:#fff;stroke-width:0.5px;}</style></defs><g transform="translate(-925 -229)"><path class="a" d="M24,0A24,24,0,1,1,0,24,24,24,0,0,1,24,0Z" transform="translate(925 229)"/><g transform="translate(2114.5 7703.304)"><path class="b" d="M24.036,6.57a.355.355,0,0,0-.163-.292L16.427,1.564a.353.353,0,0,0-.119-.048L8.771.008A.354.354,0,0,0,8.514.65l3.373,2.136-2.715.806-2.3-1.456a.352.352,0,0,0-.381,0L3.7,3.964a.352.352,0,0,0,.386.589l2.6-1.7,6.792,4.3L7.8,10.872,1,6.571l1.529-1a.352.352,0,0,0-.386-.589L.16,6.282A.357.357,0,0,0,0,6.576V18.97a.352.352,0,0,0,.164.3L7.61,23.981a.358.358,0,0,0,.289.04L20.8,20.191a.352.352,0,0,0-.2-.675L8.15,23.212V11.553L23.332,7.048V18.707l-.961.285a.352.352,0,0,0,.2.675l1.213-.36a.352.352,0,0,0,.252-.338V6.576s0,0,0-.006Zm-7.93-4.376,5.787,3.664L16.281,4.735,10.494,1.071ZM14.317,6.85,9.961,4.092l2.715-.806,3.283,2.079a.353.353,0,0,0,.119.048l6.144,1.23L10,10.27l4.32-2.828a.352.352,0,0,0,0-.592ZM.705,7.216l6.741,4.269v11.56L.705,18.776Z" transform="translate(-1177.501 -7462.304)"/><path class="b" d="M213.407,292.122a.352.352,0,0,0-.311-.055l-11.911,3.545a.352.352,0,0,0-.252.337v3.436a.352.352,0,0,0,.452.337l11.911-3.545a.352.352,0,0,0,.252-.337V292.4A.352.352,0,0,0,213.407,292.122Zm-.563,3.455-11.207,3.335v-2.7l11.207-3.335Z" transform="translate(-1369 -7740.646)"/><path class="c" d="M284.531,371.07a.352.352,0,0,0,.352-.352v-1a.352.352,0,0,0-.7,0v1A.352.352,0,0,0,284.531,371.07Z" transform="translate(-1448.339 -7814.346)"/><path class="c" d="M384.062,340.563a.352.352,0,0,0,.352-.352v-1a.352.352,0,0,0-.7,0v1A.352.352,0,0,0,384.062,340.563Z" transform="translate(-1543.197 -7785.271)"/><path class="c" d="M406.2,334.563a.352.352,0,0,0,.352-.352v-1a.352.352,0,0,0-.7,0v1A.352.352,0,0,0,406.2,334.563Z" transform="translate(-1564.294 -7779.552)"/><path class="c" d="M428.334,328.563a.352.352,0,0,0,.352-.352v-1a.352.352,0,0,0-.7,0v1A.352.352,0,0,0,428.334,328.563Z" transform="translate(-1585.391 -7773.834)"/><path class="a" d="M228.187,387.834a.352.352,0,0,0,.352-.352v-1a.352.352,0,0,0-.7,0v1A.352.352,0,0,0,228.187,387.834Z" transform="translate(-1394.64 -7830.322)"/><path class="c" d="M249.865,382.5a.352.352,0,0,0,.352-.352v-1a.352.352,0,0,0-.7,0v1A.352.352,0,0,0,249.865,382.5Z" transform="translate(-1415.3 -7825.239)"/><path class="c" d="M323.7,358.962a.352.352,0,0,0,.352-.352v-1a.352.352,0,0,0-.7,0v1A.352.352,0,0,0,323.7,358.962Z" transform="translate(-1485.664 -7802.806)"/><path class="c" d="M344.9,353.532a.352.352,0,0,0,.352-.352v-1a.352.352,0,0,0-.7,0v1A.352.352,0,0,0,344.9,353.532Z" transform="translate(-1505.872 -7797.631)"/></g></g></svg>