<svg xmlns="http://www.w3.org/2000/svg" width="48" height="48" viewBox="0 0 48 48"><defs><style>.a{fill:lime;}.b{fill:#fff;}</style></defs><g transform="translate(-120 748) rotate(-90)"><circle class="a" cx="24" cy="24" r="24" transform="translate(700 120)"/><path class="b" d="M1.658,10.461.7,11.418a1.031,1.031,0,0,0,0,1.462l8.378,8.382a1.031,1.031,0,0,0,1.462,0l8.378-8.378a1.031,1.031,0,0,0,0-1.462l-.957-.957a1.036,1.036,0,0,0-1.479.017l-4.946,5.192V3.281A1.032,1.032,0,0,0,10.5,2.246H9.122A1.032,1.032,0,0,0,8.088,3.281V15.674l-4.95-5.2a1.029,1.029,0,0,0-1.479-.017Z" transform="translate(714.603 131.753)"/></g></svg>