<svg xmlns="http://www.w3.org/2000/svg" width="48" height="48" viewBox="0 0 48 48"><defs><style>.a{fill:#b03a0e;}.b{fill:#fff;stroke:#fff;stroke-width:0.5px;}</style></defs><g transform="translate(-1410 -126)"><circle class="a" cx="24" cy="24" r="24" transform="translate(1410 126)"/><g transform="translate(1423 138)"><path class="b" d="M40.662,304.893a.361.361,0,0,0,.356.333h4.616a.334.334,0,0,0,.288-.147.4.4,0,0,0,.055-.342l-.591-2.111,1.84-1.268a.987.987,0,0,1,.774-.108l.022.006,3.842.773a4.669,4.669,0,0,0,3.117-.48.344.344,0,0,0,.044-.028l6.645-4.98a.415.415,0,0,0,.1-.525,1.811,1.811,0,0,0-2.529-.755l-.062.036a1.539,1.539,0,0,0-1.9-.478l-.008,0-.224.132a1.962,1.962,0,0,0-2.369-.2l-1.423.845h-1.9a2.509,2.509,0,0,1-1.167-.292l-.263-.139a4.278,4.278,0,0,0-4.781.509l-.023.02-.636.618a2.1,2.1,0,0,1-.737.467l-.34-1.23a.376.376,0,0,0-.343-.289H39.993a.359.359,0,0,0-.269.144.416.416,0,0,0-.088.307Zm16.949-9.377a.819.819,0,0,1,.91.172l-2.427,1.429-.075.043a2.538,2.538,0,0,0-.275-.547Zm-2.583-.078.009-.005a1.282,1.282,0,0,1,1.293-.054l-1.123.661a2.179,2.179,0,0,0-.628-.335ZM44.968,296.9l.625-.607a3.612,3.612,0,0,1,4.025-.421l.264.14a3.182,3.182,0,0,0,1.479.37h2.556a1.575,1.575,0,0,1,1.494,1.269l-1.758-.087a10.216,10.216,0,0,0-2.029.1.387.387,0,0,0-.306.442.366.366,0,0,0,.4.334,9.574,9.574,0,0,1,1.9-.1l2.18.108h.016a.377.377,0,0,0,.359-.392c0-.035,0-.07,0-.1l.258-.149,3.158-1.86a1.1,1.1,0,0,1,1.358.183l-6.3,4.725a4,4,0,0,1-2.647.4l-3.83-.77a1.651,1.651,0,0,0-1.3.193l-.017.011-1.682,1.161-1.207-4.321a2.807,2.807,0,0,0,1-.632Zm-2.164-.854,2.346,8.4H41.337l-.938-8.4Z" transform="translate(-39.634 -281.042)"/><path class="b" d="M88.982,434.848a1.064,1.064,0,1,0-1.064-1.064A1.064,1.064,0,0,0,88.982,434.848Zm0-1.344a.28.28,0,1,1-.28.28A.28.28,0,0,1,88.982,433.5Z" transform="translate(-85.215 -411.577)"/><path class="b" d="M139.3,32.826l.9.1a5.828,5.828,0,0,0,.445,1.251l-.571.815a.446.446,0,0,0,.021.527L141.17,36.8a.3.3,0,0,0,.445.025l.691-.677a4.186,4.186,0,0,0,1.055.528l.087,1.067a.362.362,0,0,0,.33.358h1.528a.362.362,0,0,0,.33-.358l.087-1.065a4.112,4.112,0,0,0,1.057-.527l.689.675a.3.3,0,0,0,.445-.025l1.077-1.275a.446.446,0,0,0,.021-.527l-.572-.818a5.93,5.93,0,0,0,.446-1.249l.885-.1a.373.373,0,0,0,.3-.39V30.628a.373.373,0,0,0-.3-.39l-.9-.1a5.829,5.829,0,0,0-.445-1.251L149,28.07a.446.446,0,0,0-.019-.525l-1.064-1.275a.3.3,0,0,0-.447-.026l-.691.677a4.186,4.186,0,0,0-1.055-.528l-.087-1.052a.347.347,0,0,0-.33-.343h-1.527a.347.347,0,0,0-.33.343l-.087,1.057a4.1,4.1,0,0,0-1.057.523l-.689-.677a.3.3,0,0,0-.445.024l-1.077,1.275a.446.446,0,0,0-.021.527l.572.817a5.932,5.932,0,0,0-.446,1.248l-.9.1a.373.373,0,0,0-.3.39v1.808a.373.373,0,0,0,.3.39Zm.363-1.842.833-.1a.357.357,0,0,0,.292-.307,5.071,5.071,0,0,1,.541-1.517.45.45,0,0,0-.023-.462l-.531-.758.651-.771.641.628a.291.291,0,0,0,.395.024,3.471,3.471,0,0,1,1.278-.637.36.36,0,0,0,.26-.334l.08-.974H145l.08.974a.368.368,0,0,0,.26.34,3.576,3.576,0,0,1,1.282.637.291.291,0,0,0,.391-.029l.639-.627.64.767-.532.76a.45.45,0,0,0-.02.467,4.915,4.915,0,0,1,.538,1.512.357.357,0,0,0,.292.307l.833.1v1.1l-.819.095a.357.357,0,0,0-.291.307A5.071,5.071,0,0,1,147.755,34a.45.45,0,0,0,.023.462l.531.758-.651.771-.641-.628a.291.291,0,0,0-.395-.024,3.472,3.472,0,0,1-1.278.637.38.38,0,0,0-.26.349l-.08.989h-.926l-.08-.989a.378.378,0,0,0-.26-.347,3.587,3.587,0,0,1-1.282-.641.291.291,0,0,0-.391.027l-.641.628-.651-.771.531-.758a.45.45,0,0,0,.02-.467,4.914,4.914,0,0,1-.538-1.512.357.357,0,0,0-.292-.307l-.833-.1Z" transform="translate(-133.437 -24.997)"/><path class="b" d="M190.182,79.674a3.912,3.912,0,1,0-3.912-3.912A3.912,3.912,0,0,0,190.182,79.674Zm0-7.04a3.128,3.128,0,1,1-3.128,3.128,3.128,3.128,0,0,1,3.128-3.128Z" transform="translate(-179.077 -69.227)"/><path class="b" d="M224.107,120.876a.392.392,0,0,0,.548,0l1.876-1.831a.392.392,0,1,0-.547-.561l-1.6,1.564-.767-.749a.392.392,0,1,0-.547.561Z" transform="translate(-213.7 -113.523)"/></g></g></svg>