<svg xmlns="http://www.w3.org/2000/svg" width="54" height="54" viewBox="0 0 54 54">
  <g id="Group_32523" data-name="Group 32523" transform="translate(-367 -793)">
    <circle id="Ellipse_764" data-name="Ellipse 764" cx="27" cy="27" r="27" transform="translate(367 793)" fill="rgba(46,91,255,0.1)"/>
    <path id="Icon_payment-invoice-sign-o" data-name="Icon payment-invoice-sign-o" d="M30.53,21.327a3.3,3.3,0,0,1,.639.959,2.735,2.735,0,0,1,.228,1.141V38.5a1.094,1.094,0,0,1-.365.867,1.183,1.183,0,0,1-.867.365H12.63a1.181,1.181,0,0,1-.867-.365A1.091,1.091,0,0,1,11.4,38.5V17.583a1.092,1.092,0,0,1,.365-.867,1.184,1.184,0,0,1,.867-.366H24.32a2.717,2.717,0,0,1,1.141.274,3.437,3.437,0,0,1,1,.594ZM29.754,38.04V24.706H24.32a1.181,1.181,0,0,1-.867-.365,1.146,1.146,0,0,1-.365-.913V18.039H13.041v20H29.754ZM24.731,18.131v4.886h4.932a.838.838,0,0,0-.32-.5L25.279,18.4a1.482,1.482,0,0,0-.548-.274Z" transform="translate(372.603 791.961)" fill="#2e5bff"/>
  </g>
</svg>
