<svg xmlns="http://www.w3.org/2000/svg" xmlns:xlink="http://www.w3.org/1999/xlink" width="20" height="20" viewBox="0 0 20 20"><defs><style>.a{clip-path:url(#a);}.b{fill:#2e5bff;}</style><clipPath id="a"><rect width="20" height="20"/></clipPath></defs><g class="a"><path class="b" d="M16,0H4A4,4,0,0,0,0,4V16a4,4,0,0,0,4,4H16a4,4,0,0,0,4-4V4A4,4,0,0,0,16,0ZM6.4,13.959V16.8H3.2V7.6H6.4ZM4.8,6.6A1.515,1.515,0,0,1,3.2,5.08,1.485,1.485,0,0,1,4.8,3.6,1.508,1.508,0,0,1,6.4,5.08,1.491,1.491,0,0,1,4.8,6.6Zm12,10.2H13.6V11.6A1.395,1.395,0,0,0,12.2,10a1.463,1.463,0,0,0-1.4,1.6v5.2H7.6V7.6h3.2V8.841A2.754,2.754,0,0,1,13.32,7.6c1.921,0,3.48,1.32,3.48,4Z"/></g></svg>