<svg xmlns="http://www.w3.org/2000/svg" width="712.883" height="564.921" viewBox="0 0 712.883 564.921">
  <g id="Group_32528" data-name="Group 32528" transform="translate(-960 -217.829)">
    <g id="Group_32527" data-name="Group 32527">
      <g id="Group_743" data-name="Group 743" transform="translate(878.257 160.77)">
        <g id="_ÎÓÈ_13" data-name="—ÎÓÈ 13" transform="translate(81.743 57.059)">
          <path id="Path_368" data-name="Path 368" d="M1205.382,232.012c4.491-3.419-1.894-9.563-6.326-6.19-7.332,5.585-14.084,11.832-21.417,17.417-4.489,3.42,1.9,9.562,6.328,6.189C1191.3,243.844,1198.052,237.6,1205.382,232.012Z" transform="translate(-605.114 -137.3)" fill="rgba(255,182,0,0.24)"/>
          <path id="Path_369" data-name="Path 369" d="M1385.948,461.251c5.723.758,6.943-7.769,1.234-8.527-12.633-1.674-24.4.9-35.8,6.078-5.18,2.352-1.741,10.321,3.478,7.95C1364.85,462.212,1374.835,459.774,1385.948,461.251Z" transform="translate(-687.708 -246.039)" fill="rgba(255,182,0,0.24)"/>
          <path id="Path_370" data-name="Path 370" d="M1398.14,619.383a144.22,144.22,0,0,0-39.988-.958c-8.88.992-7.7,9.537,1.162,8.542a119.62,119.62,0,0,1,32.891.633C1400.481,629,1406.457,620.792,1398.14,619.383Z" transform="translate(-689.255 -325.073)" fill="rgba(255,182,0,0.24)"/>
          <path id="Path_371" data-name="Path 371" d="M1280.135,985.193c-13.363-9.1-25.236-20.029-38.066-29.786-4.87-3.7-10.238,3.929-5.386,7.619,12.829,9.757,24.7,20.683,38.063,29.787C1279.811,996.265,1285.2,988.644,1280.135,985.193Z" transform="translate(-633.17 -486.213)" fill="rgba(255,182,0,0.24)"/>
          <path id="Path_372" data-name="Path 372" d="M1153.727,1038.761a191.806,191.806,0,0,0-32.061-52.281c-3.963-4.67-10.541,2.111-6.612,6.743a177.4,177.4,0,0,1,29.455,48.064C1146.772,1046.881,1156.01,1044.407,1153.727,1038.761Z" transform="translate(-575.337 -500.794)" fill="rgba(255,182,0,0.24)"/>
          <path id="Path_373" data-name="Path 373" d="M1033.424,1066.052c-2.675-18.758-8.814-36.791-13.312-55.173-1.425-5.838-10.951-4.744-9.51,1.151,4.495,18.383,10.632,36.416,13.309,55.173C1024.767,1073.2,1034.28,1072.056,1033.424,1066.052Z" transform="translate(-525.891 -511.366)" fill="rgba(255,182,0,0.24)"/>
          <path id="Path_374" data-name="Path 374" d="M881.825,1076.195l-6.591-48.421c-.818-6-10.327-4.852-9.51,1.153l6.589,48.42C873.13,1083.353,882.641,1082.2,881.825,1076.195Z" transform="translate(-456.651 -519.397)" fill="rgba(255,182,0,0.24)"/>
          <path id="Path_375" data-name="Path 375" d="M707.626,1075.959c-1.615-12.42-4.741-24.493-8.05-36.547-1.605-5.844-10.715-2.782-9.122,3.019,3.095,11.271,6.087,22.539,7.6,34.156C698.826,1082.563,708.4,1081.952,707.626,1075.959Z" transform="translate(-372.764 -525.357)" fill="rgba(255,182,0,0.24)"/>
          <path id="Path_376" data-name="Path 376" d="M558.909,1090.2c3.035-13.518,6.465-27.034,12.057-39.769,2.436-5.544-6.352-9.382-8.792-3.836-5.9,13.446-9.539,27.794-12.748,42.067C548.1,1094.58,557.589,1096.068,558.909,1090.2Z" transform="translate(-305.347 -529.002)" fill="rgba(255,182,0,0.24)"/>
          <path id="Path_377" data-name="Path 377" d="M431.937,1057.584a221.946,221.946,0,0,0,12.2-39.222c1.29-5.827-8.3-7.395-9.583-1.585a208.223,208.223,0,0,1-11.531,36.914C420.679,1059.171,429.584,1063.086,431.937,1057.584Z" transform="translate(-244.769 -514.29)" fill="rgba(255,182,0,0.24)"/>
          <path id="Path_378" data-name="Path 378" d="M302.808,1042.745c3.51-7.716,5.175-16.035,6.736-24.328,1.1-5.841-8.471-7.787-9.573-1.948-1.407,7.473-2.777,15.032-5.942,21.986C291.569,1043.86,300.346,1048.151,302.808,1042.745Z" transform="translate(-183.061 -514.202)" fill="rgba(255,182,0,0.24)"/>
          <path id="Path_379" data-name="Path 379" d="M1384.129,746.826c-15.03-1.218-29.316-6.17-43.25-11.633-4.375-1.714-7.185,4.826-2.813,6.541,14.478,5.674,29.458,10.871,45.071,12.135C1387.8,754.247,1388.809,747.2,1384.129,746.826Z" transform="translate(-681.519 -381.235)" fill="rgba(255,182,0,0.24)"/>
          <path id="Path_380" data-name="Path 380" d="M109.81,585.984c-7.639-.97-15.25-.536-22.9-.974-6.266-.358-7.177,8.778-.855,9.141,7.646.436,15.26,0,22.9.975C115.23,595.926,116.1,586.786,109.81,585.984Z" transform="translate(-81.743 -309.542)" fill="rgba(255,182,0,0.24)"/>
          <path id="Path_381" data-name="Path 381" d="M690.728,134.965c.525-9.274-.395-18.36-1.645-27.561-.815-6-10.326-4.849-9.511,1.153,1.134,8.351,2.124,16.623,1.648,25.044C680.88,139.607,690.385,141,690.728,134.965Z" transform="translate(-367.626 -79.239)" fill="rgba(255,182,0,0.24)"/>
          <path id="Path_382" data-name="Path 382" d="M883.7,133.791c3.964-23.839,7.156-48.392,18.594-70.158,2.84-5.406-5.826-9.4-8.65-4.028-11.82,22.486-15.273,47.839-19.367,72.47C873.285,138.054,882.71,139.766,883.7,133.791Z" transform="translate(-460.731 -57.059)" fill="rgba(255,182,0,0.24)"/>
          <path id="Path_383" data-name="Path 383" d="M986.387,179.9l4.187-11.865A4.773,4.773,0,0,0,988,161.872c-2.291-.961-5.43.05-6.279,2.46L977.536,176.2a4.77,4.77,0,0,0,2.571,6.162C982.4,183.32,985.534,182.31,986.387,179.9Z" transform="translate(-509.998 -107.013)" fill="rgba(255,182,0,0.24)"/>
          <path id="Path_384" data-name="Path 384" d="M1081.746,209.212c8.772-14.254,17.546-28.792,30.239-40.09,4.566-4.064-2.53-10.455-7.05-6.433-13.26,11.8-22.509,27.164-31.675,42.059C1070.076,209.927,1078.588,214.346,1081.746,209.212Z" transform="translate(-555.592 -106.964)" fill="rgba(255,182,0,0.24)"/>
          <path id="Path_385" data-name="Path 385" d="M1349.23,290.969c8.432-4.853,3.48-12.79-4.954-7.937L1312.9,301.095c-8.432,4.853-3.481,12.791,4.952,7.94Z" transform="translate(-668.442 -164.404)" fill="rgba(255,182,0,0.24)"/>
          <path id="Path_386" data-name="Path 386" d="M1359.582,852.577a184.62,184.62,0,0,0-33.807-16.859c-5.716-2.157-10.149,6.021-4.376,8.2a184.817,184.817,0,0,1,33.808,16.858C1360.388,864.065,1364.709,855.831,1359.582,852.577Z" transform="translate(-673.305 -429.274)" fill="rgba(255,182,0,0.24)"/>
          <path id="Path_387" data-name="Path 387" d="M549.455,119.557a186.845,186.845,0,0,0-14.081-59.13c-2.3-5.6-10.715-1.048-8.429,4.506a172.826,172.826,0,0,1,12.926,54.354C540.263,125.274,549.85,125.6,549.455,119.557Z" transform="translate(-294.47 -57.446)" fill="rgba(255,182,0,0.24)"/>
          <path id="Path_388" data-name="Path 388" d="M310.566,173.564c-9.949-14.936-15.471-32.385-26.614-46.588-3.672-4.678-11.892.552-8.2,5.264,11.148,14.2,16.668,31.65,26.619,46.585C305.677,183.79,313.871,178.525,310.566,173.564Z" transform="translate(-174.08 -89.621)" fill="rgba(255,182,0,0.24)"/>
          <path id="Path_389" data-name="Path 389" d="M188.772,938.713c4.665-3.858-1.765-10.977-6.441-7.111-5.679,4.7-10.267,10.381-15.543,15.468-4.322,4.169,2.076,11.315,6.439,7.111C178.5,949.092,183.091,943.413,188.772,938.713Z" transform="translate(-121.728 -474.767)" fill="rgba(255,182,0,0.24)"/>
          <path id="Path_390" data-name="Path 390" d="M233.109,222.938c-4.661-5.773-10.357-10.532-15.424-15.932-4.152-4.427-11.659,1.438-7.471,5.9,5.068,5.4,10.765,10.162,15.423,15.935C229.462,233.589,236.941,227.69,233.109,222.938Z" transform="translate(-142.594 -128.018)" fill="rgba(255,182,0,0.24)"/>
          <path id="Path_391" data-name="Path 391" d="M111.31,422.13c-6.867-2.886-14.191-4.4-21.248-6.774-5.784-1.941-9.792,6.67-3.956,8.628,7.057,2.369,14.381,3.888,21.247,6.774C112.99,433.13,116.958,424.505,111.31,422.13Z" transform="translate(-82.464 -228.276)" fill="rgba(255,182,0,0.24)"/>
          <path id="Path_392" data-name="Path 392" d="M110.181,774.122c6.113-1.018,4.555-10.252-1.569-9.234-7.442,1.244-14.493,3.859-21.8,5.628-5.99,1.451-4.476,10.693,1.569,9.232C95.689,777.977,102.739,775.362,110.181,774.122Z" transform="translate(-82.347 -395.534)" fill="rgba(255,182,0,0.24)"/>
          <path id="Path_393" data-name="Path 393" d="M163.336,286.073c-5.188-5.356-11.368-9.674-16.946-14.647-4.572-4.075-11.854,2.025-7.242,6.139,5.581,4.974,11.757,9.291,16.946,14.65C160.352,296.617,167.6,290.485,163.336,286.073Z" transform="translate(-108.492 -158.935)" fill="rgba(255,182,0,0.24)"/>
          <path id="Path_394" data-name="Path 394" d="M432.272,169.739c-1.112-7.179-3.648-13.942-5.306-20.979-1.359-5.768-10.934-4.044-9.564,1.774,1.659,7.039,4.195,13.8,5.3,20.98C423.615,177.414,433.184,175.647,432.272,169.739Z" transform="translate(-242.205 -99.214)" fill="rgba(255,182,0,0.24)"/>
        </g>
      </g>
      <g id="Group_32522" data-name="Group 32522" transform="translate(990.792 83.75)">
        <g id="Group_32521" data-name="Group 32521" transform="translate(121.208 286)">
          <g id="Group_32520" data-name="Group 32520">
            <g id="Group_32518" data-name="Group 32518">
              <path id="Path_70264" data-name="Path 70264" d="M546.771,404.173H526.41V347.738c0-24.632-23.907-44.671-53.293-44.671s-53.293,20.039-53.293,44.671v56.435H399.463V347.738C399.463,313.7,432.5,286,473.117,286s73.654,27.7,73.654,61.738Z" transform="translate(-399.463 -286)" fill="#72716f"/>
            </g>
            <g id="Group_32519" data-name="Group 32519" transform="translate(99.635 113.509)">
              <rect id="Rectangle_12495" data-name="Rectangle 12495" width="218.253" height="147.566" rx="17.315" fill="#f2cb30"/>
            </g>
          </g>
        </g>
        <path id="Path_70265" data-name="Path 70265" d="M551.1,729.77V649.426c-66.489,56.253-162.355,77.389-216.68,85.145a8.188,8.188,0,0,0,6.646,3.418H542.882A8.219,8.219,0,0,0,551.1,729.77Z" transform="translate(-112.005 -190.914)" fill="#eab531"/>
        <path id="Path_70266" data-name="Path 70266" d="M559.076,613.788a18.036,18.036,0,1,0-28.761,14.476l-5.74,40.784h32.931l-5.74-40.784A17.991,17.991,0,0,0,559.076,613.788Z" transform="translate(-211.071 -162.718)" fill="#58595a"/>
        <path id="Path_70267" data-name="Path 70267" d="M345.6,546.991v28.237c.747-11.99,6.518-38.082,42.609-38.082H355.447A9.874,9.874,0,0,0,345.6,546.991Z" transform="translate(-117.878 -131.931)" fill="#f7db5e"/>
        <path id="Path_70268" data-name="Path 70268" d="M526.313,705.028s24.439-6.908,27.191-40.784l5.74,40.784Z" transform="translate(-212.809 -198.698)" fill="#3e3d40"/>
      </g>
    </g>
  </g>
</svg>
