<svg xmlns="http://www.w3.org/2000/svg" width="35" height="35" viewBox="0 0 35 35"><defs><style>.a{fill:#fcc42f;}</style></defs><path class="a" d="M12.833,0A4.672,4.672,0,0,0,8.167,4.667v21H.583A.583.583,0,0,0,0,26.25v4.083A4.672,4.672,0,0,0,4.667,35h22.75v-.036A4.674,4.674,0,0,0,31.5,30.333V4.667a3.5,3.5,0,0,1,3.5-3.5V0ZM4.667,33.833a3.5,3.5,0,0,1-3.5-3.5v-3.5h21v3.5a4.657,4.657,0,0,0,1.583,3.5ZM30.333,4.667V30.333a3.5,3.5,0,1,1-7,0V26.25a.583.583,0,0,0-.583-.583H9.333v-21a3.5,3.5,0,0,1,3.5-3.5h19.09A4.652,4.652,0,0,0,30.333,4.667Z"/><g transform="translate(14.048 2.348)"><g transform="translate(0 0)"><rect class="a" width="11" height="1" transform="translate(0.452 0.152)"/></g></g><g transform="translate(10.499 4.649)"><g transform="translate(0 0)"><rect class="a" width="19" height="1" transform="translate(0.001 -0.149)"/></g></g><g transform="translate(11.65 8.198)"><g transform="translate(0 0)"><rect class="a" width="6" height="1" transform="translate(-0.15 0.302)"/></g></g><g transform="translate(11.65 10.499)"><g transform="translate(0 0)"><rect class="a" width="5" height="1" transform="translate(-0.15 0.001)"/></g></g><g transform="translate(11.65 12.801)"><g transform="translate(0 0)"><rect class="a" width="7" height="2" transform="translate(-0.15 -0.301)"/></g></g><g transform="translate(11.65 15.198)"><g transform="translate(0 0)"><rect class="a" width="4" height="1" transform="translate(-0.15 0.302)"/></g></g><g transform="translate(11.65 17.5)"><g transform="translate(0)"><rect class="a" width="6" height="1" transform="translate(-0.15)"/></g></g><g transform="translate(25.652 8.198)"><g transform="translate(0 0)"><rect class="a" width="2" height="1" transform="translate(-0.152 0.302)"/></g></g><g transform="translate(25.652 10.499)"><g transform="translate(0 0)"><rect class="a" width="2" height="1" transform="translate(-0.152 0.001)"/></g></g><g transform="translate(25.652 12.801)"><g transform="translate(0 0)"><rect class="a" width="2" height="2" transform="translate(-0.152 -0.301)"/></g></g><g transform="translate(25.652 15.198)"><g transform="translate(0 0)"><rect class="a" width="2" height="1" transform="translate(-0.152 0.302)"/></g></g><g transform="translate(25.652 17.5)"><g transform="translate(0)"><rect class="a" width="2" height="1" transform="translate(-0.152)"/></g></g><g transform="translate(11.65 23.35)"><g transform="translate(0 0)"><rect class="a" width="9" height="1" transform="translate(-0.15 0.15)"/></g></g><g transform="translate(11.65 20.952)"><g transform="translate(0 0)"><rect class="a" width="9" height="2" transform="translate(-0.15 -0.452)"/></g></g></svg>