<svg xmlns="http://www.w3.org/2000/svg" width="214.448" height="160.896" viewBox="0 0 214.448 160.896">
  <g id="Group_3509" data-name="Group 3509" transform="translate(-1667 -857.119)">
    <path id="Path_11092" data-name="Path 11092" d="M824.434,419.8l-4-3.94" transform="translate(1055.566 452)" fill="none" stroke="#2e5bff" stroke-linecap="round" stroke-linejoin="round" stroke-width="2.048"/>
    <path id="Path_11091" data-name="Path 11091" d="M815.1,410.605l-4-3.94" transform="translate(1055.566 452)" fill="none" stroke="#2e5bff" stroke-linecap="round" stroke-linejoin="round" stroke-width="2.048"/>
    <path id="Path_11093" data-name="Path 11093" d="M824.335,406.567l-3.939,4" transform="translate(1055.566 452)" fill="none" stroke="#2e5bff" stroke-linecap="round" stroke-linejoin="round" stroke-width="2.048"/>
    <path id="Path_11094" data-name="Path 11094" d="M815.142,415.9l-3.94,4" transform="translate(1055.566 452)" fill="none" stroke="#2e5bff" stroke-linecap="round" stroke-linejoin="round" stroke-width="2.048"/>
    <path id="Path_11074" data-name="Path 11074" d="M644.93,564.014l-4-3.94" transform="translate(1056 452.455)" fill="none" stroke="#2e5bff" stroke-linecap="round" stroke-linejoin="round" stroke-width="2.048"/>
    <path id="Path_11075" data-name="Path 11075" d="M635.6,554.821l-4-3.94" transform="translate(1056 452.455)" fill="none" stroke="#2e5bff" stroke-linecap="round" stroke-linejoin="round" stroke-width="2.048"/>
    <path id="Path_11076" data-name="Path 11076" d="M644.832,550.783l-3.94,4" transform="translate(1056 452.455)" fill="none" stroke="#2e5bff" stroke-linecap="round" stroke-linejoin="round" stroke-width="2.048"/>
    <path id="Path_11077" data-name="Path 11077" d="M635.639,560.113l-3.94,4" transform="translate(1056 452.455)" fill="none" stroke="#2e5bff" stroke-linecap="round" stroke-linejoin="round" stroke-width="2.048"/>
    <path id="Path_11073" data-name="Path 11073" d="M647.411,504.92a6.542,6.542,0,0,0,6.535,6.55h136.3a6.55,6.55,0,0,0,0-13.1h-5.6a6.549,6.549,0,0,1,0-13.1h17.738a6.55,6.55,0,0,0,0-13.1H781.848a6.549,6.549,0,0,0,0-13.1H722.1a6.55,6.55,0,0,0,0-13.1H668.883a6.55,6.55,0,0,0,0,13.1H631.539a6.549,6.549,0,0,0,0,13.1H654.88a6.55,6.55,0,0,1,0,13.1H617.535a6.549,6.549,0,0,0,0,13.1h36.411A6.542,6.542,0,0,0,647.411,504.92Zm165.246,0a6.535,6.535,0,1,1-6.535-6.55A6.542,6.542,0,0,1,812.657,504.921Z" transform="translate(1056 452.195)" fill="#cce3ff" fill-rule="evenodd"/>
    <path id="Path_11078" data-name="Path 11078" d="M741.866,519.066a35.823,35.823,0,0,0,7.014-5.954Zm9.667-9.015a44.5,44.5,0,0,0,8.824-17.829,45.151,45.151,0,0,0-54.6-54.366,44.74,44.74,0,0,0-33.314,34.992,45.139,45.139,0,0,0,48.533,53.51,44.692,44.692,0,0,0,17.5-5.389" transform="translate(1055.787 452.202)" fill="#fff" fill-rule="evenodd"/>
    <path id="Path_11079" data-name="Path 11079" d="M741.312,518.205a1.024,1.024,0,0,0,1.108,1.722Zm8.332-4.411a1.024,1.024,0,1,0-1.528-1.363Zm5.557-8.954-.878-.528Zm5.156-12.618,1,.238Zm1.135-13.564,1.021-.069Zm-2.376-11.707-.967.335Zm-5.466-10.8-.843.581Zm-4.735-5.782-.737.711Zm-8.442-6.871.546-.866Zm-10.244-4.773-.312.975Zm-13.731-2.15v0Zm-10.741,1.283.243,1Zm-11.467,4.555-.506-.89Zm-8.986,6.734.711.737Zm-8.446,11.193-.9-.481Zm-4.415,12.51-1.005-.195Zm-.545,13.525-1.018.112Zm5.364,16.882.895-.5Zm7.043,9.505.736-.711Zm15.293,10.4-.389.947Zm21.378,3.193-.1-1.019Zm18-4.493a1.023,1.023,0,0,0-.991-1.791Zm3.447-1.938a36.9,36.9,0,0,0,7.224-6.133l-1.528-1.363a34.816,34.816,0,0,1-6.8,5.774Zm9.907-9.229a45.679,45.679,0,0,0,3.751-5.33l-1.755-1.056a43.509,43.509,0,0,1-3.583,5.091Zm3.751-5.33a45.622,45.622,0,0,0,5.275-12.908l-1.992-.477a43.555,43.555,0,0,1-5.038,12.329Zm5.275-12.908a46.205,46.205,0,0,0,1.16-13.871l-2.043.138a44.146,44.146,0,0,1-1.109,13.256Zm1.16-13.871a46.114,46.114,0,0,0-2.429-11.973l-1.935.67a44.108,44.108,0,0,1,2.321,11.441Zm-2.429-11.973a45.878,45.878,0,0,0-5.592-11.049l-1.685,1.163a43.854,43.854,0,0,1,5.342,10.556Zm-5.592-11.049a46.442,46.442,0,0,0-4.841-5.911l-1.473,1.422a44.518,44.518,0,0,1,4.629,5.652Zm-4.841-5.911a46.333,46.333,0,0,0-8.632-7.026l-1.091,1.732a44.305,44.305,0,0,1,8.25,6.716Zm-8.632-7.026a45.852,45.852,0,0,0-10.478-4.882l-.624,1.95a43.894,43.894,0,0,1,10.011,4.664Zm-10.478-4.882a46.209,46.209,0,0,0-14.042-2.2l0,2.048a44.179,44.179,0,0,1,13.42,2.1Zm-14.042-2.2a46.131,46.131,0,0,0-10.985,1.313l.486,1.989a44.05,44.05,0,0,1,10.5-1.254Zm-10.985,1.313a45.554,45.554,0,0,0-11.73,4.659l1.012,1.78a43.534,43.534,0,0,1,11.2-4.45Zm-11.73,4.659a45.844,45.844,0,0,0-9.191,6.888l1.422,1.473A43.809,43.809,0,0,1,694.8,443.3Zm-9.191,6.888a45.758,45.758,0,0,0-8.639,11.448l1.808.962a43.709,43.709,0,0,1,8.253-10.937Zm-8.639,11.448a45.7,45.7,0,0,0-4.516,12.8l2.01.389a43.678,43.678,0,0,1,4.314-12.223Zm-4.516,12.8a46.249,46.249,0,0,0-.558,13.832l2.035-.224a44.213,44.213,0,0,1,.533-13.219Zm-.558,13.832a46,46,0,0,0,5.487,17.267l1.79-.993a43.967,43.967,0,0,1-5.242-16.5Zm5.487,17.267a46.32,46.32,0,0,0,7.2,9.719l1.473-1.422a44.331,44.331,0,0,1-6.884-9.29Zm7.2,9.719a46.07,46.07,0,0,0,15.641,10.641l.779-1.894a44.032,44.032,0,0,1-14.947-10.169Zm15.641,10.641a46.218,46.218,0,0,0,21.862,3.266l-.19-2.039a44.171,44.171,0,0,1-20.893-3.121Zm21.862,3.266a45.733,45.733,0,0,0,17.9-5.513l-.991-1.791a43.685,43.685,0,0,1-17.1,5.265Z" transform="translate(1055.787 452.201)" fill="#2e5bff"/>
    <path id="Path_11088" data-name="Path 11088" d="M760.229,428.2v5.614" transform="translate(1055.697 452)" fill="none" stroke="#2e5bff" stroke-linecap="round" stroke-linejoin="round" stroke-width="2.048"/>
    <path id="Path_11089" data-name="Path 11089" d="M760.229,441.3v5.614" transform="translate(1055.697 452.104)" fill="none" stroke="#2e5bff" stroke-linecap="round" stroke-linejoin="round" stroke-width="2.048"/>
    <path id="Path_11087" data-name="Path 11087" d="M750.873,437.557h5.614" transform="translate(1055.708 452)" fill="none" stroke="#2e5bff" stroke-linecap="round" stroke-linejoin="round" stroke-width="2.048"/>
    <path id="Path_11090" data-name="Path 11090" d="M763.972,437.557h5.613" transform="translate(1055.681 452)" fill="none" stroke="#2e5bff" stroke-linecap="round" stroke-linejoin="round" stroke-width="2.048"/>
    <path id="Path_11081" data-name="Path 11081" d="M682.574,524.568v3.743" transform="translate(1055.854 452.349)" fill="none" stroke="#2e5bff" stroke-linecap="round" stroke-linejoin="round" stroke-width="2.048"/>
    <path id="Path_11082" data-name="Path 11082" d="M682.574,535.8v3.742" transform="translate(1055.854 452.455)" fill="none" stroke="#2e5bff" stroke-linecap="round" stroke-linejoin="round" stroke-width="2.048"/>
    <path id="Path_11080" data-name="Path 11080" d="M675.089,532.053h3.743" transform="translate(1055.867 452.362)" fill="none" stroke="#2e5bff" stroke-linecap="round" stroke-linejoin="round" stroke-width="2.048"/>
    <path id="Path_11083" data-name="Path 11083" d="M686.316,532.053h3.743" transform="translate(1055.844 452.362)" fill="none" stroke="#2e5bff" stroke-linecap="round" stroke-linejoin="round" stroke-width="2.048"/>
    <path id="Path_11084" data-name="Path 11084" d="M702.86,444.762a38.8,38.8,0,0,0-5.571,2.609,39.275,39.275,0,0,0-7.863,5.892,39.759,39.759,0,0,0-2.792,2.99m-2.69,3.6q-1.036,1.568-1.908,3.208-.644,1.211-1.2,2.456" transform="translate(1055.842 452.127)" fill="#fff" fill-rule="evenodd"/>
    <path id="Path_11085" data-name="Path 11085" d="M703.22,445.72a1.024,1.024,0,1,0-.72-1.917Zm-5.931,1.651.506.89Zm-7.863,5.892-.711-.736Zm-3.575,2.33a1.024,1.024,0,1,0,1.566,1.319Zm-1.053,4.821a1.024,1.024,0,1,0-1.708-1.13Zm-2.762,2.643.9.481ZM679.9,465.1a1.024,1.024,0,1,0,1.871.832ZM702.5,443.8a39.978,39.978,0,0,0-5.717,2.678l1.012,1.78a37.891,37.891,0,0,1,5.425-2.541Zm-5.717,2.678a40.257,40.257,0,0,0-8.068,6.046L690.138,454a38.191,38.191,0,0,1,7.657-5.739Zm-8.068,6.046a40.579,40.579,0,0,0-2.864,3.066l1.566,1.319A38.719,38.719,0,0,1,690.138,454Zm-5.625,6.757q-1.064,1.608-1.958,3.293l1.808.961q.849-1.6,1.858-3.124Zm-1.958,3.293q-.66,1.242-1.228,2.52l1.871.832q.538-1.212,1.165-2.391Z" transform="translate(1055.842 452.126)" fill="#2e5bff"/>
    <path id="Path_11086" data-name="Path 11086" d="M698.929,480.94a3.374,3.374,0,0,0-4.721.21,3.263,3.263,0,0,0,.213,4.655l15.726,14.166a4.725,4.725,0,0,0,6.609-.3c.073-.08.073-.08.143-.162L739.342,472.9a3.264,3.264,0,0,0-.433-4.64,3.374,3.374,0,0,0-4.706.427l-21.1,25.023Z" transform="translate(1055.786 452.224)" fill="rgba(72,71,224,0.1)" stroke="#2e5bff" stroke-width="2"/>
  </g>
</svg>
