<svg xmlns="http://www.w3.org/2000/svg" width="30.137" height="30" viewBox="0 0 30.137 30">
  <path id="Icon_material-wb-sunny" data-name="Icon material-wb-sunny" d="M9.39,6.7,6.925,4.25,4.993,6.181,7.445,8.633ZM5.61,14.455H1.5v2.74H5.61ZM17.938.825H15.2V4.866h2.74V.825ZM28.144,6.181,26.212,4.25,23.76,6.7l1.932,1.932,2.452-2.452Zm-4.4,18.767L26.2,27.414l1.932-1.932L25.664,23.03l-1.918,1.918Zm3.781-10.493v2.74h4.11v-2.74ZM16.568,7.606a8.219,8.219,0,1,0,8.219,8.219A8.226,8.226,0,0,0,16.568,7.606ZM15.2,30.825h2.74V26.784H15.2ZM4.993,25.469,6.925,27.4l2.452-2.466L7.445,23Z" transform="translate(-1.5 -0.825)" fill="#f7c137"/>
</svg>
