<svg xmlns="http://www.w3.org/2000/svg" width="44.241" height="52.75" viewBox="0 0 44.241 52.75">
  <g id="tax" transform="translate(-6 -1)">
    <path id="Path_13439" data-name="Path 13439" d="M6,1V41.489a3.755,3.755,0,0,0,.341,1.557,3.806,3.806,0,0,0,.759,1.1l8.508,8.508a3.773,3.773,0,0,0,1.1.76,3.718,3.718,0,0,0,1.552.34H50.241V1ZM8.9,43.54h7.3v7.3ZM48.54,52.048H18.26a2.008,2.008,0,0,1-.349-.038V41.838H7.74a2.008,2.008,0,0,1-.038-.349V2.7H48.54Z" fill="#a23b13"/>
    <path id="Path_13440" data-name="Path 13440" d="M12,32h8.508v1.7H12Z" transform="translate(-0.895 -4.625)" fill="#a23b13"/>
    <path id="Path_13441" data-name="Path 13441" d="M12,28H46.032v1.7H12Z" transform="translate(-0.895 -4.029)" fill="#a23b13"/>
    <path id="Path_13442" data-name="Path 13442" d="M12,23h5.1v1.7H12Z" transform="translate(-0.895 -3.283)" fill="#a23b13"/>
    <path id="Path_13443" data-name="Path 13443" d="M22,23H47.524v1.7H22Z" transform="translate(-2.387 -3.283)" fill="#a23b13"/>
    <path id="Path_13444" data-name="Path 13444" d="M41.7,15.791l1.7-2.268,1.7,2.268V17.21h1.7V15.225l-2.34-3.12,2.34-3.12V7H45.1V8.418l-1.7,2.268L41.7,8.418V7H40V8.985l2.34,3.12L40,15.225V17.21h1.7Z" transform="translate(-5.073 -0.895)" fill="#a23b13"/>
    <path id="Path_13445" data-name="Path 13445" d="M29.7,15.508h3.4v1.7h1.7V14.657L32.918,7H29.888l-1.862,7.45L28,17.21h1.7ZM31.589,8.7l1.276,5.1H29.941l1.276-5.1Z" transform="translate(-3.283 -0.895)" fill="#a23b13"/>
    <path id="Path_13446" data-name="Path 13446" d="M19.4,17.21h1.7V8.7h3.4V7H16V8.7h3.4Z" transform="translate(-1.492 -0.895)" fill="#a23b13"/>
    <path id="Path_13447" data-name="Path 13447" d="M33.613,53.419a9.119,9.119,0,0,0,9.176-6.806h4.437V39.806H42.788A9.119,9.119,0,0,0,33.613,33a9.119,9.119,0,0,0-9.176,6.806H20v6.806h4.437A9.119,9.119,0,0,0,33.613,53.419Zm0-1.7a7.386,7.386,0,0,1-7.4-5.1h1.793a6.319,6.319,0,0,0,11.212,0h1.793A7.386,7.386,0,0,1,33.613,51.717Zm-3.565-5.1h7.13a4.585,4.585,0,0,1-7.13,0ZM33.613,34.7a7.386,7.386,0,0,1,7.4,5.1H39.219a6.319,6.319,0,0,0-11.212,0H26.213a7.386,7.386,0,0,1,7.4-5.1Zm3.565,5.1h-7.13a4.585,4.585,0,0,1,7.13,0ZM21.7,41.508H45.524v3.4H21.7Z" transform="translate(-2.089 -4.775)" fill="#a23b13"/>
  </g>
</svg>
