<svg xmlns="http://www.w3.org/2000/svg" width="48.571" height="46.703" viewBox="0 0 48.571 46.703"><defs><style>.a{fill:rgba(46,91,255,0.33);}</style></defs><g transform="translate(0 -9.136)"><g transform="translate(0 9.136)"><path class="a" d="M47.754,320.59a2.7,2.7,0,0,0-1.985-.817H33.305a5.76,5.76,0,0,1-2.058,2.685,5.355,5.355,0,0,1-3.225,1.051H20.549a5.354,5.354,0,0,1-3.225-1.051,5.761,5.761,0,0,1-2.058-2.685H2.8a2.7,2.7,0,0,0-1.985.817A2.7,2.7,0,0,0,0,322.575v9.341A2.7,2.7,0,0,0,.817,333.9a2.7,2.7,0,0,0,1.985.817H45.77a2.79,2.79,0,0,0,2.8-2.8v-9.341A2.7,2.7,0,0,0,47.754,320.59Zm-10.945,9.836a1.833,1.833,0,1,1,.554-1.313A1.8,1.8,0,0,1,36.808,330.427Zm7.472,0a1.832,1.832,0,1,1,.555-1.313A1.795,1.795,0,0,1,44.28,330.427Z" transform="translate(0 -288.014)"/><path class="a" d="M92.967,25.95h7.473V39.027a1.894,1.894,0,0,0,1.868,1.868h7.473a1.894,1.894,0,0,0,1.868-1.868V25.95h7.473a1.745,1.745,0,0,0,1.722-1.168,1.66,1.66,0,0,0-.409-2.014L107.357,9.691a1.832,1.832,0,0,0-2.627,0L91.653,22.768a1.66,1.66,0,0,0-.409,2.014A1.745,1.745,0,0,0,92.967,25.95Z" transform="translate(-81.758 -9.136)"/></g></g></svg>