<svg id="icon-inbox-upload" xmlns="http://www.w3.org/2000/svg" width="31.832" height="31.832" viewBox="0 0 31.832 31.832">
  <path id="Path_3553" data-name="Path 3553" d="M11.842,4.768a1.768,1.768,0,0,1-1.768,1.768H6.537V24.221h3.537a3.537,3.537,0,0,1,3.537,3.537,3.547,3.547,0,0,0,3.537,3.537h3.537a3.537,3.537,0,0,0,3.537-3.537,3.547,3.547,0,0,1,3.537-3.537h3.537V6.537H27.758a1.768,1.768,0,1,1,0-3.537h3.537a3.537,3.537,0,0,1,3.537,3.537V31.295a3.537,3.537,0,0,1-3.537,3.537H6.537A3.537,3.537,0,0,1,3,31.295V6.537A3.547,3.547,0,0,1,6.537,3h3.537A1.768,1.768,0,0,1,11.842,4.768Z" transform="translate(-3 -3)" fill="#d6d9e5"/>
  <path id="Path_3554" data-name="Path 3554" d="M13.263,9.027V20.681a1.768,1.768,0,1,0,3.537,0V9.027l2.3,2.3a1.768,1.768,0,0,0,2.476-2.511L16.27,3.51a1.768,1.768,0,0,0-2.476,0L8.489,8.815a1.768,1.768,0,0,0,2.476,2.511l2.3-2.317Z" transform="translate(0.884 -2.997)" fill="#d6d9e5"/>
</svg>
